<?xml version="1.0" standalone="no"?>
<!DOCTYPE svg PUBLIC "-//W3C//DTD SVG 20010904//EN"
 "http://www.w3.org/TR/2001/REC-SVG-20010904/DTD/svg10.dtd">
<svg version="1.0" xmlns="http://www.w3.org/2000/svg"
 width="300.000000pt" height="75.000000pt" viewBox="0 0 300.000000 75.000000"
 preserveAspectRatio="xMidYMid meet">
<metadata>
Created by potrace 1.10, written by Peter Selinger 2001-2011
</metadata>
<g transform="translate(0.000000,75.000000) scale(0.100000,-0.100000)"
fill="#000000" stroke="none">
<path d="M190 727 c-51 -21 -55 -25 -61 -62 -11 -65 2 -78 70 -70 49 6 59 4
75 -14 10 -11 23 -18 29 -14 6 3 7 1 3 -6 -5 -7 -13 -8 -23 -2 -19 10 -68 0
-120 -25 -35 -17 -38 -23 -41 -65 -4 -60 12 -74 65 -60 52 15 55 14 90 -11
l30 -23 -51 0 c-98 0 -148 -42 -137 -115 5 -29 11 -36 33 -38 15 -2 36 2 48 8
17 9 34 5 97 -25 107 -51 126 -53 157 -20 25 26 50 27 40 1 -6 -16 40 -37 85
-38 22 -1 40 7 57 23 21 22 24 34 26 103 1 58 5 79 16 83 25 10 33 -20 26
-108 -5 -85 -5 -85 21 -97 40 -19 81 -14 112 12 l28 24 35 -24 c43 -30 87 -38
134 -26 24 7 45 7 64 0 36 -14 98 -3 106 19 4 9 11 48 17 87 16 115 33 106 32
-16 0 -10 3 -16 5 -13 3 2 12 -10 21 -28 37 -73 182 -90 253 -29 16 13 18 13
24 -2 4 -9 4 -35 1 -57 -6 -49 17 -79 62 -79 48 0 61 10 67 51 6 35 10 39 35
39 34 0 107 32 137 60 21 20 21 20 31 1 9 -16 7 -20 -13 -25 -34 -8 -90 -74
-77 -90 22 -27 89 -49 126 -42 39 8 105 62 105 86 0 9 7 26 16 38 l15 22 32
-24 c39 -29 97 -37 152 -21 32 10 46 9 72 -2 20 -8 61 -12 100 -11 38 1 118 2
178 1 61 -2 121 -2 135 -2 14 0 42 -1 63 -1 53 -2 67 17 67 87 0 83 -16 132
-46 143 -32 13 -120 13 -143 1 -12 -7 -26 -5 -45 5 -31 15 -103 19 -124 5 -8
-5 -31 -2 -57 8 -37 13 -51 13 -92 3 -42 -11 -53 -10 -82 4 -25 12 -47 15 -87
10 -50 -6 -54 -5 -54 14 0 26 -40 45 -75 36 -14 -4 -35 -17 -47 -31 l-21 -24
-22 32 c-21 31 -24 32 -85 29 -35 -1 -69 3 -76 9 -8 6 -51 12 -96 14 -67 2
-89 -1 -116 -16 -34 -19 -34 -19 -70 3 -21 12 -38 25 -40 28 -4 11 -95 3 -139
-13 -38 -13 -42 -13 -58 5 -11 13 -27 19 -48 17 -18 -1 -42 1 -53 5 -12 4 -41
0 -65 -8 l-44 -15 -45 49 c-38 42 -52 50 -81 50 -42 0 -75 -21 -83 -54 -8 -34
-28 -38 -73 -14 -31 17 -58 21 -144 22 -147 1 -149 -1 -149 -145 0 -59 -3
-114 -6 -123 -9 -24 -24 -19 -24 7 0 29 -30 57 -92 86 -27 13 -50 27 -54 32
-8 14 20 10 42 -6 24 -18 65 -19 87 -2 10 6 20 29 24 50 7 44 -10 68 -66 95
l-36 17 37 3 c44 4 58 19 63 66 4 46 -32 86 -117 131 -21 11 -38 23 -38 27 0
16 -76 7 -130 -15z m161 -47 c83 -50 84 -52 90 -96 3 -25 1 -47 -3 -50 -4 -3
-8 -1 -8 3 0 5 -40 31 -90 58 l-89 50 -1 43 c0 23 4 42 8 42 5 0 47 -23 93
-50z m-115 -9 c2 -34 -2 -40 -32 -55 -19 -9 -38 -16 -42 -16 -4 0 -6 21 -4 46
3 35 9 47 26 54 42 17 51 12 52 -29z m134 -143 c0 -10 -36 7 -45 22 -4 6 5 5
19 -2 14 -6 26 -15 26 -20z m-29 -28 c46 -27 87 -50 92 -50 4 0 7 -23 7 -52 0
-48 -1 -50 -17 -36 -10 9 -53 34 -95 58 l-78 42 0 44 c0 24 2 44 3 44 2 0 42
-22 88 -50z m-113 -10 c0 -37 -4 -43 -38 -60 l-37 -19 1 46 c1 42 4 48 31 59
43 19 44 18 43 -26z m759 -6 c-6 -33 -5 -34 29 -34 32 0 34 -2 34 -36 0 -34
-1 -35 -32 -32 l-33 3 0 -75 0 -75 32 0 c27 0 32 -4 37 -29 7 -34 -5 -46 -47
-46 -45 0 -85 26 -95 63 -5 17 -7 62 -4 100 4 63 3 67 -17 67 -17 0 -21 6 -21
36 0 31 3 35 20 29 17 -5 20 -2 20 28 0 43 2 44 46 39 35 -4 36 -6 31 -38z
m-367 -23 c0 -18 2 -18 41 2 38 19 45 19 82 6 71 -25 81 -52 78 -216 l-1 -83
-41 0 -42 0 8 91 c8 109 -4 139 -59 139 -50 0 -60 -20 -66 -129 l-5 -96 -40 3
c-22 2 -40 5 -40 5 -1 1 1 68 3 150 l4 147 39 0 c31 0 39 -4 39 -19z m562 -33
c-4 -22 6 -23 28 -3 18 16 54 24 58 13 1 -5 2 -21 2 -38 0 -25 -4 -30 -23 -30
-44 0 -62 -34 -66 -126 l-3 -84 -40 0 c-33 0 -38 3 -34 18 3 9 6 75 8 145 l3
128 35 -3 c27 -2 34 -7 32 -20z m330 -25 c95 -84 35 -253 -90 -253 -67 0 -132
69 -132 140 0 37 24 91 50 115 41 37 130 36 172 -2z m158 2 c0 -19 5 -19 36 1
36 24 98 5 124 -39 29 -46 27 -133 -3 -178 -36 -54 -84 -61 -158 -22 -3 2 -4
-24 -2 -57 l4 -60 -38 0 -38 0 7 117 c3 65 7 148 7 186 l1 67 30 0 c20 0 30
-5 30 -15z m261 -14 c4 -3 14 -37 24 -76 10 -38 22 -77 26 -85 7 -13 8 -13 12
0 3 8 18 50 33 92 26 72 30 77 56 75 15 -1 28 -5 28 -8 0 -3 -27 -72 -60 -155
-38 -95 -69 -157 -86 -171 -28 -26 -71 -30 -98 -10 -15 11 -16 17 -5 39 10 23
14 25 36 15 19 -8 27 -7 40 6 15 14 13 26 -26 144 -23 70 -45 134 -48 142 -4
10 2 12 28 6 19 -4 37 -10 40 -14z m-1653 -40 c15 -10 55 -33 90 -50 l62 -31
0 -46 0 -45 -92 50 -93 50 -2 46 c-1 25 0 45 3 45 3 0 18 -8 32 -19z m792 -46
c0 -53 -1 -55 -20 -43 -35 22 -22 93 18 98 1 0 2 -25 2 -55z m-845 4 c-1 -37
-5 -44 -35 -60 -19 -10 -37 -18 -40 -19 -3 0 -3 21 0 46 4 39 9 48 35 59 42
19 41 19 40 -26z m2055 24 c4 -4 4 -19 -1 -32 -7 -19 -12 -22 -21 -13 -7 7
-25 12 -40 12 -43 0 -34 -26 15 -42 41 -13 42 -14 42 -58 0 -37 -4 -47 -26
-59 -25 -14 -79 -10 -106 7 -19 12 -4 55 16 46 9 -4 31 -9 49 -12 41 -6 46 24
5 34 -48 11 -73 32 -73 62 0 32 8 44 35 61 21 12 92 8 105 -6z m170 -13 c24
-24 25 -33 4 -51 -13 -11 -17 -10 -25 4 -12 20 -40 22 -57 5 -7 -7 -12 -29
-12 -50 0 -48 31 -69 61 -42 18 16 21 17 36 1 16 -15 15 -18 -2 -37 -18 -20
-66 -27 -100 -14 -41 16 -60 119 -29 162 30 44 92 54 124 22z m169 -16 c17
-22 21 -41 21 -105 0 -71 -2 -79 -19 -79 -11 0 -21 6 -24 13 -4 10 -7 9 -18 0
-34 -32 -89 0 -89 52 0 42 16 55 68 55 36 0 43 3 40 18 -3 13 -13 17 -45 16
-48 -1 -66 22 -37 43 31 23 80 16 103 -13z m111 6 c0 -7 6 -7 19 0 61 32 94
-12 89 -123 -3 -64 -5 -72 -23 -72 -18 0 -20 7 -20 72 0 39 -3 74 -7 78 -4 4
-18 5 -31 1 -22 -5 -25 -12 -32 -80 -6 -67 -8 -73 -27 -68 -18 4 -19 12 -16
103 3 95 4 99 26 99 12 0 22 -5 22 -10z m-260 -70 c0 -15 -72 -31 -87 -19 -7
6 -10 15 -7 20 7 12 94 11 94 -1z m-352 -19 c11 -7 9 -13 -9 -30 -29 -27 -39
-27 -39 2 0 36 19 47 48 28z"/>
<path d="M1384 349 c-23 -26 -25 -92 -2 -115 23 -24 68 -21 90 6 56 70 -28
175 -88 109z m60 -44 c7 -20 -3 -45 -19 -45 -14 0 -27 38 -19 52 8 13 31 9 38
-7z"/>
<path d="M1686 328 c-23 -33 -20 -75 9 -103 30 -31 40 -31 70 0 31 30 34 84 7
108 -26 24 -68 21 -86 -5z m58 -37 c10 -15 -5 -40 -20 -34 -18 7 -18 43 0 43
8 0 17 -4 20 -9z"/>
<path d="M2534 195 c-14 -35 37 -50 56 -16 15 29 13 31 -20 31 -18 0 -33 -6
-36 -15z"/>
</g>
</svg>
